# xmcd
#
# Track frame offsets: 
#        182
#        9905
#        20480
#        30745
#        45222
#        61072
#        71535
#        81547
#        91675
#        106812
#
# Disc length: 1619 seconds
#
# Revision: 0
# Processed by: cddbd v1.5.1PL0 Copyright (c) Steve Scherf et al.
# Submitted via: ExactAudioCopy v0.95a5
#
DISCID=6906510a
DTITLE=Reno and Smiley  - Instrumentals (1954-1964)
DYEAR=1992
DGENRE=Bluegrass
TTITLE0=Dill Pickle Rag
TTITLE1=Black and White Rag
TTITLE2=Mack's Hoedown
TTITLE3=Pick and Hold
TTITLE4=Sandy Road
TTITLE5=Richmond Ruckus
TTITLE6=Lee's March
TTITLE7=Jackknife-in'
TTITLE8=Hen Scratchin' Stomp
TTITLE9=Banjo Riff
EXTD=
EXTT0=
EXTT1=
EXTT2=
EXTT3=
EXTT4=
EXTT5=
EXTT6=
EXTT7=
EXTT8=
EXTT9=
PLAYORDER=
